<svg width="10" height="6" viewBox="0 0 10 6" fill="none" xmlns="http://www.w3.org/2000/svg">
<path d="M5.00018 5.81317C4.9263 5.81326 4.85313 5.79875 4.78487 5.77048C4.71661 5.7422 4.65462 5.70071 4.60244 5.6484L0.852444 1.8984C0.748374 1.79262 0.690318 1.65001 0.690923 1.50162C0.691527 1.35323 0.750742 1.21109 0.85567 1.10616C0.960598 1.00123 1.10274 0.942015 1.25113 0.941411C1.39952 0.940807 1.54213 0.998863 1.64791 1.10293L5.00018 4.45515L8.35244 1.10293C8.45822 0.998863 8.60084 0.940807 8.74923 0.941411C8.89762 0.942015 9.03976 1.00123 9.14469 1.10616C9.24962 1.21109 9.30883 1.35323 9.30943 1.50162C9.31004 1.65001 9.25198 1.79262 9.14791 1.8984L5.39791 5.6484C5.34574 5.70071 5.28375 5.7422 5.21549 5.77048C5.14723 5.79875 5.07406 5.81326 5.00018 5.81317V5.81317Z" fill="#252117"/>
</svg>
