<svg width="13" height="13" viewBox="0 0 13 13" fill="none" xmlns="http://www.w3.org/2000/svg">
<path d="M11.9586 5.57692H7.92015V1.42308C7.92015 0.961538 7.57399 0.5 6.99707 0.5C6.42015 0.5 6.07399 0.846154 6.07399 1.42308V5.57692H1.92015C1.45861 5.57692 0.99707 5.92308 0.99707 6.5C0.99707 7.07692 1.34323 7.42308 1.92015 7.42308H6.07399V11.5769C6.07399 12.0385 6.42015 12.5 6.99707 12.5C7.57399 12.5 7.92015 12.1538 7.92015 11.5769V7.30769H12.074C12.5355 7.30769 12.9971 6.96154 12.9971 6.38462C12.9971 5.80769 12.5355 5.57692 11.9586 5.57692Z" fill="#C8C8C8"/>
</svg>
