<svg width="32" height="24" viewBox="0 0 32 24" fill="none" xmlns="http://www.w3.org/2000/svg">
<g clip-path="url(#clip0)">
<path d="M23.3473 20.3142C19.8484 22.418 16.968 22.7384 13.7243 21.3844C12.3263 20.8048 10.8591 19.9148 9.17129 18.6209C7.78543 16.6933 7.04387 14.3556 7.05771 11.958C7.07155 9.56033 7.84005 7.23185 9.24806 5.32139C10.9034 4.05642 12.3512 3.18974 13.7254 2.61678C16.9691 1.2628 19.8484 1.5821 23.3483 3.68705C23.4477 3.74674 23.5576 3.78569 23.6716 3.80169C23.7856 3.8177 23.9016 3.81043 24.0129 3.78032C24.1242 3.7502 24.2286 3.69783 24.3202 3.62618C24.4119 3.55453 24.4889 3.46502 24.5469 3.36274C24.6049 3.26047 24.6427 3.14745 24.6583 3.03012C24.6738 2.91279 24.6668 2.79346 24.6375 2.67895C24.6082 2.56443 24.5573 2.45696 24.4877 2.36268C24.4181 2.2684 24.3311 2.18916 24.2317 2.12948C20.2647 -0.253609 16.8221 -0.619639 13.067 0.946836C9.7065 2.34865 6.02816 5.28579 0.373347 11.0766C0.255135 11.1977 0.161331 11.3416 0.0973238 11.5001C0.0333163 11.6585 0.000366211 11.8284 0.000366211 12.0001C0.000366211 12.1717 0.0333163 12.3416 0.0973238 12.5C0.161331 12.6585 0.255135 12.8024 0.373347 12.9235C6.02816 18.7176 9.7065 21.6526 13.067 23.0544C14.5807 23.683 16.0328 24.0012 17.5 24C19.6776 24 21.8638 23.2969 24.236 21.8695C24.4368 21.749 24.5827 21.5513 24.6418 21.32C24.7009 21.0888 24.6683 20.8428 24.5512 20.6362C24.4341 20.4297 24.242 20.2795 24.0172 20.2187C23.7924 20.1579 23.5534 20.1914 23.3527 20.3119L23.3473 20.3142Z" fill="#000"/>
<path d="M31.8292 3.18616C31.3535 3.35415 30.8712 3.5266 30.4085 3.74243L30.0582 3.90264C29.9425 3.95716 29.8311 4.01946 29.7165 4.07843C29.4916 4.19969 29.2581 4.31317 29.0353 4.44223C28.1414 4.96037 27.2824 5.53984 26.4642 6.1767C25.6457 6.81308 24.8683 7.49508 24.1114 8.20044L23.56 8.74114C23.374 8.92137 23.1924 9.10272 23.0194 9.2874L22.4852 9.84368L21.9598 10.4C21.3381 11.0797 20.6688 11.7194 20.0276 12.3758C19.9508 12.3091 19.873 12.2435 19.7951 12.18C19.3291 11.8067 18.8209 11.4929 18.2814 11.2455C17.7488 10.9982 17.1856 10.8275 16.6077 10.7382C16.4628 10.717 16.3147 10.7037 16.1698 10.6926C16.0249 10.6814 15.8735 10.6825 15.7286 10.6859C15.581 10.6921 15.4337 10.7062 15.2875 10.7282C15.1411 10.7554 14.9966 10.7926 14.855 10.8394L14.7815 11.2321C14.881 11.3434 14.9772 11.4246 15.0659 11.5203C15.1545 11.616 15.2421 11.7072 15.3254 11.804C15.4919 11.9942 15.6497 12.1812 15.7957 12.3703C15.8692 12.4671 15.9427 12.5572 16.0119 12.6518C16.0811 12.7463 16.1525 12.8409 16.2206 12.9332C16.2887 13.0256 16.3536 13.1246 16.4185 13.2181C16.4833 13.3115 16.545 13.4083 16.6088 13.4984C16.8564 13.8722 17.0845 14.2405 17.2835 14.5998C17.471 14.932 17.6347 15.2778 17.7733 15.6345C17.8111 15.7157 17.8295 15.7936 17.8587 15.8693L17.8792 15.926L17.89 15.9538V15.9605L17.9008 15.985C17.921 16.0287 17.9426 16.071 17.9657 16.1118C18.1523 16.4595 18.4188 16.7548 18.742 16.9718C19.2246 17.2961 19.8045 17.4306 20.3756 17.3507C20.9467 17.2708 21.4707 16.9819 21.8516 16.5368C21.883 16.5012 21.9122 16.4645 21.9414 16.4255L21.9717 16.3866L21.9998 16.3488L22.056 16.2731C22.349 15.8668 22.6204 15.4446 22.8691 15.0081C23.1188 14.5698 23.3578 14.1292 23.6032 13.6909C23.8487 13.2525 24.106 12.8264 24.3785 12.4148L24.7883 11.7962L25.2034 11.1854C25.477 10.7738 25.7614 10.3777 26.0425 9.97385C26.3236 9.56999 26.609 9.17281 26.9075 8.78675C27.0545 8.59317 27.1962 8.38957 27.3486 8.20155L27.8038 7.62747C27.9552 7.43611 28.1152 7.25477 28.272 7.07119L28.5034 6.78638L28.7488 6.51603C28.9131 6.33802 29.0732 6.14889 29.2429 5.97644C29.4127 5.804 29.5835 5.62932 29.7543 5.45243C29.9252 5.27553 30.1079 5.11866 30.2863 4.94844C30.376 4.86611 30.4647 4.77933 30.5566 4.69923L30.8377 4.46337L31.1199 4.22751C31.1664 4.18746 31.2129 4.14629 31.2616 4.10735L31.4086 3.9961C31.6054 3.84776 31.8025 3.69756 32 3.54551L31.8292 3.18616ZM18.7464 13.8578L18.7399 13.8667L18.7518 13.85L18.7464 13.8578Z" fill="#000"/>
</g>
<defs>
<clipPath id="clip0">
<rect width="32" height="24" fill="white"/>
</clipPath>
</defs>
</svg>
