<svg width="18" height="18" viewBox="0 0 18 18" fill="none" xmlns="http://www.w3.org/2000/svg">
<g clip-path="url(#clip0)">
<path d="M2.60296 13.5575C3.51359 13.5575 4.25181 12.8193 4.25181 11.9086C4.25181 10.998 3.51359 10.2598 2.60296 10.2598C1.69232 10.2598 0.954102 10.998 0.954102 11.9086C0.954102 12.8193 1.69232 13.5575 2.60296 13.5575Z" fill="#252117"/>
<path d="M8.46526 13.5575C9.3759 13.5575 10.1141 12.8193 10.1141 11.9086C10.1141 10.998 9.3759 10.2598 8.46526 10.2598C7.55462 10.2598 6.81641 10.998 6.81641 11.9086C6.81641 12.8193 7.55462 13.5575 8.46526 13.5575Z" fill="#252117"/>
<path d="M14.5112 13.5575C15.4218 13.5575 16.16 12.8193 16.16 11.9086C16.16 10.998 15.4218 10.2598 14.5112 10.2598C13.6005 10.2598 12.8623 10.998 12.8623 11.9086C12.8623 12.8193 13.6005 13.5575 14.5112 13.5575Z" fill="#252117"/>
</g>
<defs>
<clipPath id="clip0">
<rect width="24" height="24" fill="white" transform="translate(-3.44287)"/>
</clipPath>
</defs>
</svg>
