<svg width="16" height="16" viewBox="0 0 16 16" fill="none" xmlns="http://www.w3.org/2000/svg">
<path d="M7.93893 15.8779C12.3235 15.8779 15.8779 12.3235 15.8779 7.93893C15.8779 3.55438 12.3235 0 7.93893 0C3.55438 0 0 3.55438 0 7.93893C0 12.3235 3.55438 15.8779 7.93893 15.8779Z" fill="#FCF6E8"/>
<path d="M4.03054 9.03832C4.63763 9.03832 5.12978 8.54617 5.12978 7.93908C5.12978 7.33199 4.63763 6.83984 4.03054 6.83984C3.42345 6.83984 2.9313 7.33199 2.9313 7.93908C2.9313 8.54617 3.42345 9.03832 4.03054 9.03832Z" fill="#E4AA24"/>
<path d="M7.93893 9.03832C8.54602 9.03832 9.03816 8.54617 9.03816 7.93908C9.03816 7.33199 8.54602 6.83984 7.93893 6.83984C7.33184 6.83984 6.83969 7.33199 6.83969 7.93908C6.83969 8.54617 7.33184 9.03832 7.93893 9.03832Z" fill="#E4AA24"/>
<path d="M11.9695 9.03832C12.5766 9.03832 13.0687 8.54617 13.0687 7.93908C13.0687 7.33199 12.5766 6.83984 11.9695 6.83984C11.3624 6.83984 10.8702 7.33199 10.8702 7.93908C10.8702 8.54617 11.3624 9.03832 11.9695 9.03832Z" fill="#E4AA24"/>
</svg>
