<svg width="13" height="17" viewBox="0 0 13 17" fill="none" xmlns="http://www.w3.org/2000/svg">
<path d="M7.93466 1.67734V1.5707C7.93466 1.46406 7.93466 1.25079 7.83032 1.14415C7.83032 1.03751 7.72597 0.930872 7.62162 0.824234C7.30858 0.504321 6.89118 0.397683 6.47379 0.610959C6.36945 0.717597 6.2651 0.717597 6.16075 0.824234C6.0564 0.930872 5.95205 1.03751 5.95205 1.14415C5.95205 1.25079 5.84771 1.35742 5.84771 1.5707V1.67734C3.03032 2.21053 0.943359 4.6632 0.943359 7.64906V10.315V12.2345C0.943359 12.661 1.2564 13.0876 1.77814 13.0876H12.1086C12.526 13.0876 12.9434 12.7677 12.9434 12.2345V10.4216V7.64906C12.9434 4.6632 10.7521 2.21053 7.93466 1.67734ZM11.3781 10.4216V11.5947H2.61292V10.4216V7.64906C2.61292 5.19639 4.59553 3.17027 6.99553 3.17027C9.39553 3.17027 11.3781 5.19639 11.3781 7.64906V10.4216Z" fill="#C8C8C8"/>
<path d="M4.8042 14.3672C4.8042 15.5403 5.74333 16.5 6.89116 16.5C8.03898 16.5 8.97811 15.5403 8.97811 14.3672H6.89116H4.8042Z" fill="#C8C8C8"/>
</svg>
