<svg width="32" height="32" viewBox="0 0 32 32" fill="none" xmlns="http://www.w3.org/2000/svg">
<circle cx="16" cy="16" r="16" fill="#FCF6E8"/>
<path d="M21.1089 13.8989V11.4821C21.1089 11.0249 20.717 10.633 20.2598 10.633H12.4868L12.0949 9.52255C11.9642 9.19596 11.6376 9 11.3111 9H7.84915C7.39191 9 7 9.3266 7 9.84915V10.6983V12.3966V22.521L10.4619 14.4868C10.5925 14.1602 10.9191 13.9642 11.2457 13.9642H21.1089V13.8989Z" fill="#252117"/>
<path d="M21.1089 13.8984V22.4552L24.3095 15.0742C24.5708 14.4863 24.1136 13.8984 23.5257 13.8984H21.1089Z" fill="#D1CDB2"/>
<path d="M10.4619 14.421L7 22.5205H21.1089V13.8984H11.2457C10.9191 13.8984 10.5925 14.1597 10.4619 14.421Z" fill="#D1CDB2"/>
</svg>
