<svg width="8" height="8" viewBox="0 0 8 8" fill="none" xmlns="http://www.w3.org/2000/svg">
<g clip-path="url(#clip0)">
<path d="M4.0001 0C2.6001 0 1.3001 0.8 0.500098 2C-0.199902 3.2 -0.199902 4.8 0.500098 6C1.2001 7.2 2.5001 8 4.0001 8C5.4001 8 6.7001 7.2 7.5001 6C8.2001 4.8 8.2001 3.2 7.5001 2C6.7001 0.8 5.4001 0 4.0001 0Z" fill="#D1CDB2"/>
<path d="M3.90005 2.7C4.23142 2.7 4.50005 2.43137 4.50005 2.1C4.50005 1.76863 4.23142 1.5 3.90005 1.5C3.56868 1.5 3.30005 1.76863 3.30005 2.1C3.30005 2.43137 3.56868 2.7 3.90005 2.7Z" fill="white"/>
<path d="M4.30015 5.7V3.5H2.90015V4.3H3.60015V5.7H2.90015V6.4H5.10015V5.7H4.30015Z" fill="white"/>
</g>
<defs>
<clipPath id="clip0">
<rect width="8" height="8" fill="white"/>
</clipPath>
</defs>
</svg>
