<svg width="19" height="19" viewBox="0 0 19 19" fill="none" xmlns="http://www.w3.org/2000/svg">
<g clip-path="url(#clip0)">
<path d="M17.9586 7.57692H13.9202V3.42308C13.9202 2.96154 13.574 2.5 12.9971 2.5C12.4201 2.5 12.074 2.84615 12.074 3.42308V7.57692H7.92015C7.45861 7.57692 6.99707 7.92308 6.99707 8.5C6.99707 9.07692 7.34323 9.42308 7.92015 9.42308H12.074V13.5769C12.074 14.0385 12.4201 14.5 12.9971 14.5C13.574 14.5 13.9202 14.1538 13.9202 13.5769V9.30769H18.074C18.5355 9.30769 18.9971 8.96154 18.9971 8.38462C18.9971 7.80769 18.5355 7.57692 17.9586 7.57692Z" fill="#C8C8C8"/>
</g>
<defs>
<clipPath id="clip0">
<rect width="18" height="18" fill="white" transform="translate(0.99707 0.5)"/>
</clipPath>
</defs>
</svg>
