<svg width="108" height="27" viewBox="0 0 108 27" fill="none" xmlns="http://www.w3.org/2000/svg">
<g clip-path="url(#clip0)">
<path d="M0 21.1572V3.29785H11.2097V5.92596H3.15383V11.1049H10.1746V13.7125H3.15383V18.5599H11.2097V21.1619L0 21.1572Z" fill="#252117"/>
<path d="M21.4731 8.24787H24.8724L17.1385 27.0004H14.1555L16.6933 20.3882L11.3965 8.24414H14.821L18.2203 17.097L21.4731 8.24787Z" fill="#252117"/>
<path d="M51.7886 14.0388C51.7886 11.7935 50.9262 10.62 49.4729 10.62C48.0925 10.62 46.7382 11.7171 46.6644 14.5492V21.1613H43.6338V8.24712H46.6644V10.4161C47.329 8.8329 48.7328 7.9668 50.3344 7.9668C51.8866 7.9668 53.4145 8.60473 54.2275 10.3882C55.2167 8.32162 56.9622 7.9668 58.3175 7.9668C61.5442 7.9668 62.9489 10.2885 62.9489 14.0127V21.1567H59.9182V14.0388C59.9182 11.7935 59.0558 10.62 57.6026 10.62C56.223 10.62 54.8678 11.7171 54.794 14.5492V21.1613H51.7886V14.0388Z" fill="#252117"/>
<path d="M78.5086 8.24712V21.1567H75.478V19.2177C74.5913 20.6212 73.0391 21.437 71.2163 21.437C67.5202 21.437 65.1064 18.4271 65.1064 14.6507C65.1064 11.0028 67.4221 7.9668 71.2405 7.9668C72.9159 7.9668 74.4681 8.6811 75.478 10.1609V8.24712H78.5086ZM71.8305 18.8117C73.8989 18.8117 75.55 17.357 75.55 14.8071C75.55 12.3066 73.9978 10.5968 71.7558 10.5968C69.4653 10.5968 68.1587 12.4593 68.1587 14.6795C68.1596 16.9724 69.5634 18.8117 71.8305 18.8117Z" fill="#252117"/>
<path d="M84.4978 11.1043C84.9159 8.91019 86.5662 7.9668 87.8971 7.9668C88.3162 7.9668 88.5626 8.04316 88.9322 8.14467V11.2319C88.4719 11.0666 87.9886 10.9804 87.5014 10.9767C86.3926 10.9767 84.5445 11.6147 84.5445 15.1862V21.1567H81.5166V8.24711H84.4978V11.1043Z" fill="#252117"/>
<path d="M97.3037 8.24746H100.654V8.63022L96.3145 14.1667L98.1868 17.1767C98.8271 18.1462 99.221 18.6053 100.133 18.6053C100.403 18.6053 101.122 18.5289 101.611 18.1462L102.69 20.3151C101.655 21.361 100.325 21.4373 99.7093 21.4373C97.8127 21.4373 96.7533 20.3664 95.8909 19.0905L93.3783 14.9062V21.157H90.3477V2.71094H93.3783V13.58L97.3037 8.24746Z" fill="#252117"/>
<path d="M37.1405 19.0687C35.2519 20.2095 33.7052 20.3837 31.956 19.6498C31.2051 19.3341 30.4119 18.8545 29.5036 18.1514C28.7568 17.1064 28.357 15.8389 28.3643 14.5389C28.3716 13.2388 28.7856 11.9763 29.5441 10.9404C30.4362 10.254 31.2159 9.78463 31.956 9.47358C33.7052 8.73972 35.2555 8.9148 37.1405 10.0538C37.1937 10.0931 37.2542 10.1205 37.3182 10.1342C37.3822 10.148 37.4483 10.1478 37.5122 10.1337C37.5762 10.1196 37.6366 10.0918 37.6896 10.0522C37.7426 10.0126 37.7871 9.96204 37.8202 9.90368C37.8534 9.84532 37.8744 9.78046 37.882 9.71323C37.8896 9.64599 37.8836 9.57785 37.8645 9.51314C37.8453 9.44842 37.8133 9.38855 37.7705 9.33733C37.7278 9.28611 37.6752 9.24466 37.6162 9.21561C35.4795 7.92205 33.6242 7.72555 31.6017 8.57302C29.7914 9.33295 27.8103 10.9245 24.7671 14.0676C24.7035 14.1333 24.653 14.2113 24.6186 14.2972C24.5841 14.3831 24.5664 14.4752 24.5664 14.5682C24.5664 14.6612 24.5841 14.7533 24.6186 14.8392C24.653 14.9251 24.7035 15.0031 24.7671 15.0688C27.8139 18.21 29.795 19.8016 31.6017 20.5634C32.3593 20.8916 33.1717 21.063 33.9929 21.0682C35.162 21.0682 36.3428 20.6863 37.6216 19.9124C37.7243 19.8444 37.7976 19.7379 37.8261 19.6152C37.8547 19.4925 37.8363 19.3631 37.7749 19.254C37.7134 19.145 37.6136 19.0649 37.4964 19.0303C37.3791 18.9958 37.2535 19.0095 37.1459 19.0687H37.1405Z" fill="#E4AA24"/>
<path d="M41.714 9.7832C41.4577 9.87633 41.1978 9.96946 40.9487 10.0849L40.7589 10.1716C40.6969 10.2014 40.6366 10.2349 40.579 10.2647C40.4576 10.3308 40.3317 10.3923 40.2121 10.463C39.7304 10.7437 39.2674 11.0577 38.8263 11.4027C38.3866 11.7482 37.9666 12.1179 37.5601 12.4998L37.2624 12.7931C37.1623 12.8912 37.0646 12.9899 36.9693 13.0893L36.6815 13.3901L36.3982 13.6946C36.0628 14.0671 35.7031 14.4099 35.3577 14.7656C35.3164 14.7293 35.2741 14.6939 35.2318 14.6594C34.9803 14.4572 34.7062 14.2871 34.4153 14.1528C34.1293 14.0174 33.8267 13.9234 33.516 13.8734C33.4377 13.8623 33.3577 13.8539 33.2804 13.8483C33.203 13.8427 33.1203 13.8427 33.0421 13.8483C32.9638 13.8539 32.882 13.8623 32.8046 13.8716C32.7255 13.8851 32.6473 13.9044 32.5708 13.9293L32.5312 14.1426C32.5852 14.1994 32.6365 14.2469 32.685 14.299C32.7336 14.3512 32.7795 14.3996 32.8244 14.4518C32.9144 14.5551 32.998 14.6566 33.078 14.7591C33.1176 14.8122 33.1572 14.8606 33.1949 14.9118C33.2327 14.963 33.2705 15.0143 33.3073 15.0646C33.3442 15.1148 33.3784 15.1689 33.4144 15.2182C33.4503 15.2676 33.4818 15.3216 33.5169 15.3709C33.65 15.574 33.7723 15.7733 33.8766 15.9679C33.9772 16.1474 34.0653 16.3341 34.1401 16.5267C34.1608 16.5705 34.1707 16.6124 34.186 16.6533L34.1967 16.6841L34.203 16.699L34.2084 16.712C34.2201 16.7353 34.2309 16.7576 34.2435 16.78C34.3442 16.9682 34.4877 17.128 34.6617 17.2456C34.9216 17.4215 35.2341 17.4945 35.5418 17.4512C35.8495 17.408 36.1318 17.2513 36.3371 17.01L36.3856 16.9504L36.4018 16.929L36.4171 16.9085L36.4468 16.8675C36.6048 16.6472 36.751 16.4181 36.8847 16.1812C37.0196 15.9437 37.1482 15.7053 37.2804 15.4678C37.4126 15.2303 37.5502 15.0022 37.6986 14.7759L37.9189 14.4406L38.1429 14.109C38.2894 13.8855 38.4432 13.6713 38.5925 13.4571C38.7418 13.2429 38.8983 13.0222 39.0583 12.8136C39.1375 12.7084 39.2139 12.5985 39.2957 12.4961L39.5413 12.185C39.6231 12.0807 39.7094 11.9829 39.7931 11.8805L39.9208 11.7287L40.0521 11.5825C40.142 11.4893 40.2265 11.3832 40.3218 11.2891C40.4172 11.195 40.5017 11.1028 40.5979 11.0097C40.6942 10.9166 40.7886 10.829 40.8839 10.7368C40.9325 10.6921 40.9801 10.6437 41.0305 10.6018L41.1816 10.4742L41.3336 10.3438L41.41 10.2786L41.4891 10.219C41.5952 10.139 41.7014 10.0576 41.8075 9.97505L41.714 9.7832ZM34.6644 15.5693L34.6707 15.56L34.6644 15.5693Z" fill="#E4AA24"/>
</g>
<defs>
<clipPath id="clip0">
<rect width="108" height="27" fill="white"/>
</clipPath>
</defs>
</svg>
