<svg width="17" height="18" viewBox="0 0 17 18" fill="none" xmlns="http://www.w3.org/2000/svg">
<path fill-rule="evenodd" clip-rule="evenodd" d="M16.8896 17.0459H3.88965C3.88965 13.5004 6.79047 10.5996 10.3359 10.5996C13.9888 10.5996 16.8896 13.5004 16.8896 17.0459Z" fill="#E4AA24"/>
<path d="M10.3356 2.11157C11.9472 2.11157 13.3439 3.40083 13.3439 5.11983C13.3439 6.73141 12.0546 8.1281 10.3356 8.1281C8.61663 8.1281 7.43481 6.73141 7.43481 5.11983C7.43481 3.40083 8.72407 2.11157 10.3356 2.11157ZM10.3356 0.5C7.86456 0.5 5.82324 2.54132 5.82324 5.11983C5.82324 7.69835 7.86456 9.73967 10.4431 9.73967C13.0216 9.73967 15.0629 7.69835 15.0629 5.11983C14.9555 2.54132 12.9142 0.5 10.3356 0.5Z" fill="#E4AA24"/>
</svg>
