<svg width="20" height="19" viewBox="0 0 20 19" fill="none" xmlns="http://www.w3.org/2000/svg">
<g clip-path="url(#clip0)">
<path d="M11.4972 4.81775C13.7909 4.81775 15.5448 6.70664 15.5448 8.86537C15.5448 11.0241 13.6559 12.913 11.4972 12.913C9.33848 12.913 7.44959 11.0241 7.44959 8.86537C7.44959 6.70664 9.20356 4.81775 11.4972 4.81775ZM11.4972 2.79395C8.12419 2.79395 5.42578 5.49236 5.42578 8.86537C5.42578 12.2384 8.12419 14.9368 11.4972 14.9368C14.8702 14.9368 17.5686 12.2384 17.5686 8.86537C17.5686 5.49236 14.8702 2.79395 11.4972 2.79395Z" fill="#C8C8C8"/>
<path d="M11.4971 3.06349V0.5" stroke="#C8C8C8" stroke-width="2" stroke-miterlimit="10"/>
<path d="M11.4973 4.81775C12.5767 4.81775 13.656 5.22252 14.3306 6.03204C15.9497 7.65109 15.9497 10.2146 14.3306 11.8336C13.656 12.6432 12.5767 13.0479 11.4973 13.0479C10.4179 13.0479 9.33856 12.6432 8.52903 11.8336C7.04491 10.2146 7.04491 7.65109 8.52903 6.03204C9.33856 5.35744 10.4179 4.81775 11.4973 4.81775ZM11.4973 2.79395C9.87824 2.79395 8.39411 3.46855 7.17983 4.68283C4.75126 7.1114 4.75126 10.8892 7.17983 13.3178C8.39411 14.532 9.87824 15.0717 11.4973 15.0717C13.1163 15.0717 14.6005 14.532 15.8147 13.3178C18.2433 10.8892 18.2433 7.1114 15.8147 4.68283C14.6005 3.46855 12.9814 2.79395 11.4973 2.79395Z" fill="#C8C8C8"/>
<path d="M7.31467 4.8176L5.42578 2.92871" stroke="#C8C8C8" stroke-width="2" stroke-miterlimit="10"/>
<path d="M11.4972 4.81775C13.7909 4.81775 15.5448 6.70664 15.5448 8.86537C15.5448 11.0241 13.6559 12.913 11.4972 12.913C9.33848 12.913 7.44959 11.0241 7.44959 8.86537C7.44959 6.70664 9.20356 4.81775 11.4972 4.81775ZM11.4972 2.79395C8.12419 2.79395 5.42578 5.49236 5.42578 8.86537C5.42578 12.2384 8.12419 14.9368 11.4972 14.9368C14.8702 14.9368 17.5686 12.2384 17.5686 8.86537C17.5686 5.49236 14.8702 2.79395 11.4972 2.79395Z" fill="#C8C8C8"/>
<path d="M5.56056 9H2.99707" stroke="#C8C8C8" stroke-width="2" stroke-miterlimit="10"/>
<path d="M11.4973 4.81775C12.5767 4.81775 13.656 5.22252 14.3306 6.03204C15.9497 7.65109 15.9497 10.2146 14.3306 11.8336C13.656 12.6432 12.5767 13.0479 11.4973 13.0479C10.4179 13.0479 9.33856 12.6432 8.52903 11.8336C7.04491 10.2146 7.04491 7.65109 8.52903 6.03204C9.33856 5.35744 10.4179 4.81775 11.4973 4.81775ZM11.4973 2.79395C9.87824 2.79395 8.39411 3.46855 7.17983 4.68283C4.75126 7.1114 4.75126 10.8892 7.17983 13.3178C8.39411 14.532 9.87824 15.0717 11.4973 15.0717C13.1163 15.0717 14.6005 14.532 15.8147 13.3178C18.2433 10.8892 18.2433 7.1114 15.8147 4.68283C14.6005 3.46855 12.9814 2.79395 11.4973 2.79395Z" fill="#C8C8C8"/>
<path d="M7.31467 13.1826L5.42578 14.9366" stroke="#C8C8C8" stroke-width="2" stroke-miterlimit="10"/>
<path d="M11.4972 4.81775C13.7909 4.81775 15.5448 6.70664 15.5448 8.86537C15.5448 11.0241 13.6559 12.913 11.4972 12.913C9.33848 12.913 7.44959 11.0241 7.44959 8.86537C7.44959 6.70664 9.20356 4.81775 11.4972 4.81775ZM11.4972 2.79395C8.12419 2.79395 5.42578 5.49236 5.42578 8.86537C5.42578 12.2384 8.12419 14.9368 11.4972 14.9368C14.8702 14.9368 17.5686 12.2384 17.5686 8.86537C17.5686 5.49236 14.8702 2.79395 11.4972 2.79395Z" fill="#C8C8C8"/>
<path d="M11.4971 14.9365V17.5" stroke="#C8C8C8" stroke-width="2" stroke-miterlimit="10"/>
<path d="M11.4973 4.81775C12.5767 4.81775 13.656 5.22252 14.3306 6.03204C15.9497 7.65109 15.9497 10.2146 14.3306 11.8336C13.656 12.6432 12.5767 13.0479 11.4973 13.0479C10.4179 13.0479 9.33856 12.6432 8.52903 11.8336C7.04491 10.2146 7.04491 7.65109 8.52903 6.03204C9.33856 5.35744 10.4179 4.81775 11.4973 4.81775ZM11.4973 2.79395C9.87824 2.79395 8.39411 3.46855 7.17983 4.68283C4.75126 7.1114 4.75126 10.8892 7.17983 13.3178C8.39411 14.532 9.87824 15.0717 11.4973 15.0717C13.1163 15.0717 14.6005 14.532 15.8147 13.3178C18.2433 10.8892 18.2433 7.1114 15.8147 4.68283C14.6005 3.46855 12.9814 2.79395 11.4973 2.79395Z" fill="#C8C8C8"/>
<path d="M15.6797 13.1826L17.4337 14.9366" stroke="#C8C8C8" stroke-width="2" stroke-miterlimit="10"/>
<path d="M11.4972 4.81775C13.7909 4.81775 15.5448 6.70664 15.5448 8.86537C15.5448 11.0241 13.6559 12.913 11.4972 12.913C9.33848 12.913 7.44959 11.0241 7.44959 8.86537C7.44959 6.70664 9.20356 4.81775 11.4972 4.81775ZM11.4972 2.79395C8.12419 2.79395 5.42578 5.49236 5.42578 8.86537C5.42578 12.2384 8.12419 14.9368 11.4972 14.9368C14.8702 14.9368 17.5686 12.2384 17.5686 8.86537C17.5686 5.49236 14.8702 2.79395 11.4972 2.79395Z" fill="#C8C8C8"/>
<path d="M17.4336 9H19.9971" stroke="#C8C8C8" stroke-width="2" stroke-miterlimit="10"/>
<path d="M11.4973 4.81775C12.5767 4.81775 13.656 5.22252 14.3306 6.03204C15.9497 7.65109 15.9497 10.2146 14.3306 11.8336C13.656 12.6432 12.5767 13.0479 11.4973 13.0479C10.4179 13.0479 9.33856 12.6432 8.52903 11.8336C7.04491 10.2146 7.04491 7.65109 8.52903 6.03204C9.33856 5.35744 10.4179 4.81775 11.4973 4.81775ZM11.4973 2.79395C9.87824 2.79395 8.39411 3.46855 7.17983 4.68283C4.75126 7.1114 4.75126 10.8892 7.17983 13.3178C8.39411 14.532 9.87824 15.0717 11.4973 15.0717C13.1163 15.0717 14.6005 14.532 15.8147 13.3178C18.2433 10.8892 18.2433 7.1114 15.8147 4.68283C14.6005 3.46855 12.9814 2.79395 11.4973 2.79395Z" fill="#C8C8C8"/>
<path d="M15.6797 4.8176L17.4337 2.92871" stroke="#C8C8C8" stroke-width="2" stroke-miterlimit="10"/>
</g>
<defs>
<clipPath id="clip0">
<rect width="17" height="17" fill="white" transform="translate(2.99707 0.5)"/>
</clipPath>
</defs>
</svg>

